<svg xmlns="http://www.w3.org/2000/svg" xmlns:xlink="http://www.w3.org/1999/xlink" id="Ebene_1" x="0" y="0" version="1.1" viewBox="0 0 220 128" style="enable-background:new 0 0 220 128" xml:space="preserve"><style type="text/css">.st0{fill:#00a1e9}</style><path d="M66.1,0C54.65,0,45.4,9.18,45.4,20.51v86.99c0,11.32,9.26,20.51,20.7,20.51h87.81	c11.43,0,20.69-9.18,20.69-20.51v-0.89c-0.38-0.16-33.58-13.88-50.45-21.91c-11.38,13.88-26.06,22.3-41.31,22.3	c-25.78,0-34.53-22.35-22.32-37.06c2.66-3.21,7.19-6.27,14.21-7.99c10.99-2.68,28.48,1.67,44.88,7.03	c2.95-5.38,5.43-11.31,7.28-17.62H76.37v-5.07h26.05v-9.09H70.87v-5.07h31.55V19.15c0,0,0-2.18,2.23-2.18h12.74v15.15h31.19v5.07	h-31.19v9.09h25.46c-2.44,9.89-6.14,18.99-10.78,26.98c7.73,2.77,14.66,5.4,19.83,7.11c17.24,5.72,22.08,6.41,22.7,6.49V20.51	C174.6,9.18,165.34,0,153.91,0L66.1,0L66.1,0z M80.26,69.35c-1.11,0.01-2.22,0.07-3.34,0.18c-3.23,0.32-9.29,1.73-12.6,4.64	c-9.93,8.58-3.99,24.27,16.11,24.27c11.68,0,23.36-7.4,32.53-19.25C101.14,73.47,90.96,69.23,80.26,69.35L80.26,69.35z" class="st0"/></svg>