<svg xmlns="http://www.w3.org/2000/svg" xmlns:xlink="http://www.w3.org/1999/xlink" width="200" height="200" class="icon" data-spm-anchor-id="a313x.7781069.0.i0" p-id="6783" t="1669735100600" version="1.1" viewBox="0 0 1024 1024"><path fill="#E0E0E0" d="M467.916 543.472c-22.212 0-40.26 18.048-40.26 40.26v277.316h-39.96V633.924H299.5l-31.288 67.636a190.48 190.48 0 0 0-8.524 138.332l58.412 182.152h179.748c6.768-52.444 10.28-105.392 10.28-158.136v-280.172c0-22.216-18.052-40.264-40.212-40.264zM600.432 633.92v85.336c-29.932-3.86-52.296-30.084-52.296-61.52v-23.816h52.296z" p-id="6784"/><path fill="#71CDE1" d="M761.124 542.972v26.472h-234.848c-0.2-0.904-0.452-1.804-0.704-2.708-0.052-0.2-0.052-0.352-0.152-0.504-0.3-1.004-0.6-1.956-0.952-2.908s-0.704-1.908-1.104-2.86a47.736 47.736 0 0 0-4.112-7.972c-0.5-0.852-1.052-1.652-1.604-2.456a34.108 34.108 0 0 0-1.704-2.308v-4.764h245.18z" p-id="6785"/><path fill="#4A555F" d="M785.792 640.58h-263.008v-6.664c0-3.392 0-6.744-0.044-10.088l-0.072-5.08c-0.052-3.512-0.1-7.04-0.192-10.524a1067.252 1067.252 0 0 0-1.016-26.184c-0.068-0.96-0.144-2.08-0.3-3.168a50.64 50.64 0 0 0-1.336-7.836l-0.932-3.384c-0.136-0.628-0.364-1.196-0.584-1.792l-0.16-0.46a28.712 28.712 0 0 0-0.904-2.296c-1.164-2.82-2.308-5.056-3.544-6.94-0.524-0.868-0.864-1.456-1.32-2.036l-0.36-0.508a17.44 17.44 0 0 0-1.212-1.66c-9.86-12.632-26.06-20.084-43.46-20.084-24.52 0-50.392 14.984-52.908 48.456l-0.032 0.428c-0.16 2.244-0.32 4.428-0.4 6.72a376.004 376.004 0 0 0-0.396 15.992v4.576c0 1.216 0 2.388 0.04 3.648 0.004 2.892 0.048 5.564 0.092 8.148l0.312 20.728H102.796c-31.924 0-57.9-25.992-57.9-57.944V174.292c0-31.948 25.976-57.94 57.9-57.94h595.652l-1.464 7.88a135.356 135.356 0 0 0-2.244 24.6c0 15.456 2.564 30.588 7.62 44.98a136.744 136.744 0 0 0 11.864 25.124 137.052 137.052 0 0 0 30.628 35.152 137.488 137.488 0 0 0 23.208 15.204 133.648 133.648 0 0 0 44.016 13.836c8.164 1.112 16.368 1.548 24.56 1.064l7.052-0.412v298.86c0.004 31.948-25.972 57.94-57.896 57.94z m-249.688-13.328h249.688c24.572 0 44.568-20.012 44.568-44.612V297.684h-0.092c-6.644 0-13.356-0.452-19.956-1.348a147.08 147.08 0 0 1-48.384-15.212 150.868 150.868 0 0 1-25.48-16.692 150.58 150.58 0 0 1-33.628-38.596 150.32 150.32 0 0 1-13.032-27.604 148.536 148.536 0 0 1-8.376-49.396c0-6.42 0.412-12.832 1.228-19.152H102.796c-24.572 0-44.568 20.012-44.568 44.612V582.64c0 24.6 19.996 44.612 44.568 44.612h297.776l-0.16-7.136c-0.044-2.7-0.088-5.444-0.088-8.196-0.044-1.188-0.044-2.504-0.044-3.864v-4.576c0-2.396 0.044-4.836 0.088-7.232 0.044-3.104 0.184-6.188 0.316-9.272 0.084-2.408 0.252-4.748 0.42-7.16l0.036-0.448c3.14-41.788 36.524-60.812 66.204-60.812 21.476 0 41.604 9.368 53.852 25.06 0.62 0.748 1.292 1.668 1.88 2.56 0.708 0.932 1.288 1.872 1.912 2.908 1.556 2.368 3.088 5.336 4.536 8.84 0.44 1.016 0.912 2.184 1.276 3.292 0.192 0.516 0.368 1.012 0.532 1.504l0.24 0.236 1.188 4.872c0.836 3.392 1.372 6.496 1.64 9.508 0.16 1.052 0.268 2.5 0.364 3.904 0.492 9.684 0.828 18.36 1.036 26.64 0.092 3.54 0.144 7.116 0.192 10.676l0.08 5.072c0.012 1.212 0.028 2.416 0.032 3.624z" p-id="6786"/><path fill="#4A555F" d="M785.792 640.58h-263.008v-6.664c0-3.392 0-6.744-0.044-10.088l-0.072-5.08c-0.052-3.512-0.1-7.04-0.192-10.524a1067.252 1067.252 0 0 0-1.016-26.184c-0.068-0.96-0.144-2.08-0.3-3.168a50.64 50.64 0 0 0-1.336-7.836l-0.208-0.868c-0.028-0.112-0.048-0.228-0.072-0.34l-0.228-0.228-0.42-1.948c-0.136-0.628-0.364-1.196-0.584-1.792l-0.16-0.46a28.712 28.712 0 0 0-0.904-2.296c-1.164-2.82-2.308-5.056-3.544-6.94-0.524-0.868-0.864-1.456-1.32-2.036l-0.36-0.508a17.44 17.44 0 0 0-1.212-1.66c-9.86-12.632-26.06-20.084-43.46-20.084-24.52 0-50.392 14.984-52.908 48.456l-0.032 0.428c-0.16 2.244-0.32 4.428-0.4 6.72a376.004 376.004 0 0 0-0.396 15.992v4.576c0 1.216 0 2.388 0.04 3.648 0.004 2.892 0.048 5.564 0.092 8.148l0.312 20.728H102.796c-31.924 0-57.9-25.992-57.9-57.944V174.292c0-31.948 25.976-57.94 57.9-57.94h595.652l-1.464 7.88a135.356 135.356 0 0 0-2.244 24.6c0 15.456 2.564 30.588 7.62 44.98a136.744 136.744 0 0 0 11.864 25.124 137.052 137.052 0 0 0 30.628 35.152 137.488 137.488 0 0 0 23.208 15.204 133.648 133.648 0 0 0 44.016 13.836c8.164 1.112 16.368 1.548 24.56 1.064l7.052-0.412v298.86c0.004 31.948-25.972 57.94-57.896 57.94z m-249.688-13.328h249.688c24.572 0 44.568-20.012 44.568-44.612V297.684h-0.092c-6.644 0-13.356-0.452-19.956-1.348a147.08 147.08 0 0 1-48.384-15.212 150.868 150.868 0 0 1-25.48-16.692 150.58 150.58 0 0 1-33.628-38.596 150.32 150.32 0 0 1-13.032-27.604 148.536 148.536 0 0 1-8.376-49.396c0-6.42 0.412-12.832 1.228-19.152H102.796c-24.572 0-44.568 20.012-44.568 44.612V582.64c0 24.6 19.996 44.612 44.568 44.612h297.776l-0.16-7.136c-0.044-2.7-0.088-5.444-0.088-8.196-0.044-1.188-0.044-2.504-0.044-3.864v-4.576c0-2.396 0.044-4.836 0.088-7.232 0.044-3.104 0.184-6.188 0.316-9.272 0.084-2.408 0.252-4.748 0.42-7.16l0.036-0.448c3.14-41.788 36.524-60.812 66.204-60.812 21.476 0 41.604 9.368 53.852 25.06 0.62 0.748 1.292 1.668 1.88 2.56 0.708 0.932 1.288 1.872 1.912 2.908 1.556 2.368 3.088 5.336 4.536 8.84 0.44 1.016 0.912 2.184 1.276 3.292 0.192 0.516 0.368 1.012 0.532 1.504l0.24 0.236 0.432 1.948c0.24 0.732 0.428 1.516 0.608 2.284l0.148 0.636c0.836 3.392 1.372 6.496 1.64 9.508 0.16 1.052 0.268 2.5 0.364 3.904 0.492 9.684 0.828 18.36 1.036 26.64 0.092 3.54 0.144 7.116 0.192 10.676l0.08 5.072c0.012 1.216 0.028 2.42 0.032 3.628z" p-id="6787"/><path fill="#4A555F" d="M536.16 629.604h-0.044c0-2-0.044-3.956-0.044-5.952-0.044-3.112-0.088-6.176-0.176-9.288 0-2.176-0.044-4.308-0.088-6.488 0-0.8-0.044-1.644-0.088-2.444v-0.668c-0.088-2.132-0.132-4.268-0.224-6.4-0.044-1.644-0.088-3.288-0.176-4.976-0.132-3.82-0.312-7.82-0.532-11.996a37.508 37.508 0 0 0-0.268-3.2c-0.044-0.312-0.088-0.576-0.132-0.844a61.24 61.24 0 0 0-1.644-9.508l-0.132-0.668c-0.176-0.756-0.356-1.556-0.62-2.268l-0.224-1.112-0.176-0.844-0.088-0.088-0.176-0.132a12.76 12.76 0 0 0-0.532-1.512 36.328 36.328 0 0 0-1.244-3.288c-1.468-3.508-2.976-6.488-4.532-8.844a36.752 36.752 0 0 0-1.912-2.932 42.172 42.172 0 0 0-1.912-2.532c-6.132-7.82-14.22-14.132-23.46-18.396-1.156-0.532-2.312-1.068-3.512-1.512-1.2-0.488-2.4-0.932-3.644-1.332a39.168 39.168 0 0 0-3.288-1.02 2.46 2.46 0 0 0-0.756-0.22 41.44 41.44 0 0 0-3.42-0.844 48.452 48.452 0 0 0-3.464-0.668 25.96 25.96 0 0 0-1.956-0.312c-0.488-0.088-0.976-0.176-1.512-0.176a18.48 18.48 0 0 0-2.132-0.268c-0.132 0-0.268-0.044-0.444 0-0.844-0.132-1.732-0.176-2.576-0.224a65.26 65.26 0 0 0-2.888-0.088c-2.976 0-6 0.132-8.976 0.488-1.732 0.22-3.42 0.488-5.112 0.8-1.2 0.224-2.4 0.488-3.6 0.756-1.82 0.444-3.6 0.976-5.376 1.556-3.82 1.244-7.552 2.844-11.152 4.756-0.8 0.444-1.556 0.888-2.312 1.332-3.376 2-6.62 4.312-9.644 6.976-2.22 2-4.312 4.132-6.264 6.444-1.376 1.6-2.62 3.288-3.776 5.068-0.624 0.888-1.156 1.776-1.732 2.708-1.2 1.956-2.268 4-3.2 6.132-0.712 1.6-1.376 3.244-1.956 4.976-2.044 5.644-3.376 11.864-3.912 18.752v0.488c-0.044 0.8-0.132 1.556-0.176 2.312a374.116 374.116 0 0 0-0.668 23.416v2.532c0 1.376 0 2.664 0.044 3.864 0 2.756 0.044 5.508 0.088 8.176l0.132 6.044c0 0.4 0 0.756 0.044 1.112 0 0.976 0.044 1.912 0.044 2.844 0.088 3.512 0.176 7.02 0.176 10.488h13.24l-0.312-20.704c-0.044-2.62-0.088-5.288-0.088-8.176-0.044-1.244-0.044-2.444-0.044-3.644v-2.356c0-8.532 0.224-17.02 0.844-25.372 0.224-3.156 0.668-6.132 1.288-8.976a62 62 0 0 1 1.512-5.376c0.268-0.844 0.576-1.732 0.888-2.576 0.668-1.644 1.42-3.244 2.176-4.756 0 0-0.044-0.044 0-0.044a47.424 47.424 0 0 1 16.084-17.82 37.208 37.208 0 0 1 4.044-2.4c1.376-0.712 2.8-1.42 4.22-2 7.152-3.02 14.976-4.488 22.66-4.488H468c1.068 0 2.132 0.044 3.2 0.132 0.888 0.044 1.732 0.132 2.576 0.224 0.488 0.044 1.024 0.132 1.556 0.176 1.42 0.176 2.844 0.444 4.22 0.756 0.8 0.132 1.556 0.312 2.312 0.532 0.756 0.132 1.512 0.356 2.268 0.624a51.904 51.904 0 0 1 17.152 8.444c1.332 0.888 2.576 1.956 3.776 3.112 1.868 1.6 3.6 3.42 5.108 5.376 0.224 0.22 0.444 0.488 0.624 0.712 0.488 0.532 0.888 1.112 1.244 1.644l0.356 0.488c0.312 0.4 0.532 0.8 0.8 1.288 0.444 0.712 0.888 1.42 1.332 2.176 0.444 0.712 0.844 1.468 1.244 2.312 0.224 0.4 0.4 0.8 0.576 1.2 0.312 0.62 0.576 1.288 0.888 2 0.488 1.2 0.976 2.4 1.376 3.644l0.268 0.932 0.444 1.956 0.224 0.224a0.836 0.836 0 0 1 0.088 0.312l0.176 0.888c0.176 0.668 0.312 1.332 0.488 1.956 0.132 0.624 0.268 1.288 0.356 1.956 0.224 1.288 0.356 2.532 0.488 3.912 0.088 0.444 0.132 0.888 0.176 1.288l0.132 1.912v0.044c0.224 4.264 0.4 8.396 0.576 12.352 0 0.4 0 0.756 0.044 1.156 0.132 3.908 0.268 7.688 0.356 11.376 0.088 4.132 0.176 8.308 0.224 12.484l0.088 4.356c0.044 2.22 0.044 4.488 0.044 6.756v9.996h13.376c0-2.8-0.044-5.688-0.044-8.488 0.048-1.564 0.048-2.496 0.048-2.496z" p-id="6788"/><path fill="#FFD552" d="M244.1 291.016H196.836l-19.904-0.032c-10.108-0.016-18.312 8.884-18.312 19.872v44.28c0 10.96 8.164 19.852 18.252 19.872l45.424 0.092 45.328 0.088c10.1 0.02 18.304-8.864 18.32-19.844l0.032-22.288 0.032-22.1c0.016-10.976-8.16-19.888-18.26-19.9l-23.648-0.04z m0 0H196.836l-19.904-0.032c-10.108-0.016-18.312 8.884-18.312 19.872v44.28c0 10.96 8.164 19.852 18.252 19.872l45.424 0.092 45.328 0.088c10.1 0.02 18.304-8.864 18.32-19.844l0.032-22.288 0.032-22.1c0.016-10.976-8.16-19.888-18.26-19.9l-23.648-0.04z m512.012 205.528h-171.624v-37.052h171.624v37.052z m-397.428 0.004v-37.052l171.504-0.008v37.06H358.684z m-54.572-0.004H132.488v-37.052h171.624v37.052z m7.672-139.936c0 23.316-18.2 42.72-41.464 44.272H174.204c-23.264-1.604-41.464-20.956-41.464-44.272V309.628c0-24.516 19.956-44.472 44.424-44.472h90.2c24.468 0 44.424 19.956 44.424 44.472v46.98zM196.836 291.016l-19.904-0.032c-10.108-0.016-18.312 8.884-18.312 19.872v44.28c0 10.96 8.164 19.852 18.252 19.872l45.424 0.092 45.328 0.088c10.1 0.02 18.304-8.864 18.32-19.844l0.032-22.288 0.032-22.1c0.016-10.976-8.16-19.888-18.26-19.9l-23.644-0.036H196.836z m47.264 0H196.836l-19.904-0.032c-10.108-0.016-18.312 8.884-18.312 19.872v44.28c0 10.96 8.164 19.852 18.252 19.872l45.424 0.092 45.328 0.088c10.1 0.02 18.304-8.864 18.32-19.844l0.032-22.288 0.032-22.1c0.016-10.976-8.16-19.888-18.26-19.9l-23.648-0.04z m0 0.008H196.836l-19.904-0.032c-10.108-0.016-18.312 8.884-18.312 19.872v44.276c0 10.96 8.164 19.852 18.252 19.872l45.424 0.092 45.328 0.088c10.1 0.02 18.304-8.864 18.32-19.84l0.032-22.288 0.024-22.104c0.016-10.976-8.16-19.884-18.26-19.9l-23.64-0.036zM764.996 275.2c0.132 1.556 0.176 3.156 0.176 4.756 0 47.056-38.348 85.444-85.536 85.444-26.392 0-50.92-11.996-67.228-32.924l-6.356-8.176-8 6.62a66.252 66.252 0 0 1-42.388 15.42c-36.612 0-66.428-29.816-66.428-66.384 0-36.656 29.816-66.428 66.428-66.428 15.464 0 30.572 5.42 42.388 15.332l8 6.62 6.356-8.176c16.308-20.84 40.836-32.88 67.228-32.88 5.6 0 11.108 0.532 16.44 1.6-5.2-14.796-8-30.66-8-47.188H102.796a25.44 25.44 0 0 0-25.416 25.416v408.436c0 13.996 11.376 25.372 25.416 25.372h304.152v-4.576a382.42 382.42 0 0 1 0.4-16.216c0.088-2.532 0.268-4.932 0.444-7.42 4.532-60.296 78.472-70.16 108.152-32.124 0.624 0.756 1.2 1.556 1.688 2.312 0.624 0.8 1.112 1.6 1.644 2.488 1.6 2.444 2.932 5.156 4.088 7.952 0.4 0.932 0.8 1.912 1.112 2.844 0.356 0.976 0.712 1.912 0.932 2.932 0.132 0.132 0.132 0.312 0.176 0.488 0.312 0.844 0.488 1.82 0.712 2.712 0.668 2.712 1.2 5.508 1.468 8.488 0.176 1.244 0.268 2.532 0.356 3.776 0.444 8.796 0.8 17.552 1.024 26.348h256.652c13.996 0 25.416-11.376 25.416-25.372v-292.96a140.384 140.384 0 0 1-46.216-14.532z" data-spm-anchor-id="a313x.7781069.0.i1" p-id="6789"/><path fill="#4A555F" d="M267.388 381.768H177.184c-13.924 0-25.252-11.312-25.252-25.216V309.596a25.28 25.28 0 0 1 25.252-25.252h90.204a25.28 25.28 0 0 1 25.244 25.252v46.956c0.004 13.904-11.32 25.216-25.244 25.216zM177.184 297.676a11.936 11.936 0 0 0-11.92 11.92v46.956a11.916 11.916 0 0 0 11.92 11.888h90.204a11.916 11.916 0 0 0 11.916-11.884v-46.96a11.932 11.932 0 0 0-11.916-11.92H177.184z" p-id="6790"/><path fill="#4A555F" d="M267.4 381.784H177.192a25.264 25.264 0 0 1-25.236-25.236V309.596c0-13.916 11.32-25.24 25.236-25.24H267.4a25.268 25.268 0 0 1 25.236 25.24v46.952a25.268 25.268 0 0 1-25.236 25.236zM177.192 297.684a11.92 11.92 0 0 0-11.908 11.908v46.952a11.92 11.92 0 0 0 11.908 11.908H267.4a11.92 11.92 0 0 0 11.908-11.908V309.596a11.92 11.92 0 0 0-11.908-11.908H177.192z" p-id="6791"/><path fill="#4A555F" d="M267.388 284.348H177.184a25.28 25.28 0 0 0-25.252 25.252v46.956c0 13.904 11.324 25.216 25.252 25.216h90.204c13.92 0 25.244-11.312 25.244-25.216v-46.96a25.272 25.272 0 0 0-25.244-25.248z m11.916 25.248v16.808h-31.512v-28.728h19.596a11.932 11.932 0 0 1 11.916 11.92z m-72.348-11.92h27.508v28.728h-27.508v-28.728z m-29.772 0h16.44v28.728h-28.36v-16.808a11.936 11.936 0 0 1 11.92-11.92z m-11.92 58.876v-16.816h50.36v28.704h-38.44a11.92 11.92 0 0 1-11.92-11.888z m102.124 11.888h-38.432v-28.704h50.348v16.82a11.912 11.912 0 0 1-11.916 11.884zM315.788 508.22h-195v-60.392h195v60.392z m-181.668-13.332h168.34v-33.732H134.12v33.732zM541.804 508.22H346.8v-60.392h195.004v60.392z m-181.676-13.332h168.344v-33.732H360.128v33.732zM767.812 508.22h-195v-60.392h195v60.392z m-181.668-13.332h168.34v-33.732h-168.34v33.732z" p-id="6792"/><path fill="#71CDE1" d="M761.128 542.96v26.484h-228.036a27.872 27.872 0 0 0-0.444-2.044l-0.044-0.224a1.308 1.308 0 0 1-0.088-0.4c-0.268-0.976-0.488-2-0.756-2.976-0.088-0.312-0.224-0.62-0.268-0.932a61.54 61.54 0 0 0-10.708-19.908h240.344z" p-id="6793"/><path fill="#4A555F" d="M514.476 536.292a58.624 58.624 0 0 1 10.976 13.332h229.012v13.152h-223.012c0.044 0.044 0.044 0.044 0.044 0.088 0.044 0.312 0.176 0.624 0.268 0.932 0.268 0.976 0.488 2 0.756 2.976 0 0.132 0.044 0.268 0.088 0.4l0.044 0.224c0.4 1.644 0.756 3.288 1.068 4.976 0.176 1.112 0.312 2.176 0.444 3.244 0 0.176 0.044 0.356 0.088 0.488h233.544v-39.812h-253.32z" p-id="6794"/><path fill="#E0E0E0" d="M555.648 279.908m-45.312 0a45.312 45.312 0 1 0 90.624 0 45.312 45.312 0 1 0-90.624 0Z" p-id="6795"/><path fill="#71CDE1" d="M744.068 279.912c0 35.548-28.836 64.384-64.384 64.384s-64.34-28.836-64.34-64.384 28.792-64.384 64.34-64.384c10.352 0 20.172 2.444 28.836 6.844a144.164 144.164 0 0 0 32.124 36.88 63.48 63.48 0 0 1 3.424 20.66z" p-id="6796"/><path fill="#4A555F" d="M830.256 297.684c-82.072 0-148.84-66.772-148.84-148.844S748.184 0 830.256 0s148.844 66.772 148.844 148.844-66.772 148.84-148.844 148.84z m0-284.352c-74.72 0-135.512 60.792-135.512 135.512s60.788 135.512 135.512 135.512 135.516-60.792 135.516-135.512-60.796-135.512-135.516-135.512z" p-id="6797"/><path fill="#4A555F" d="M830.36 275.468c-4.844-0.076-9.48-0.26-14.136-0.772l1.468-13.248c4.136 0.456 8.36 0.688 12.568 0.688 2.324-0.116 4.652-0.068 6.948-0.208l0.808 13.304c-2.536 0.156-5.088 0.236-7.656 0.236z m21.62-1.864l-2.284-13.136a113.752 113.752 0 0 0 12.248-2.836l3.732 12.796c-4.48 1.308-9.088 2.376-13.696 3.176z m-49.62-1.232a127.58 127.58 0 0 1-13.536-3.864l4.372-12.592a111.64 111.64 0 0 0 12.092 3.452l-2.928 13.004z m76.576-6.636l-5.136-12.3a111.52 111.52 0 0 0 11.308-5.484l6.484 11.652a126.652 126.652 0 0 1-12.656 6.132z m-103.124-2.576a126.732 126.732 0 0 1-12.336-6.764l7.056-11.312a112.916 112.916 0 0 0 11.028 6.048l-5.748 12.028z m127.656-11.052l-7.724-10.864a114.424 114.424 0 0 0 9.84-7.844l8.868 9.948a129.008 129.008 0 0 1-10.984 8.76z m-151.492-3.796a127.08 127.08 0 0 1-10.544-9.304l9.364-9.484c2.964 2.924 6.136 5.72 9.432 8.32l-8.252 10.468z m172.444-14.888l-9.912-8.912a115.992 115.992 0 0 0 7.884-9.808l10.832 7.768a126.892 126.892 0 0 1-8.804 10.952z m-192.44-4.808a126.6 126.6 0 0 1-8.248-11.376l11.204-7.216a114.148 114.148 0 0 0 7.388 10.184l-10.344 8.408z m208.8-18.008l-11.628-6.52a112.2 112.2 0 0 0 5.532-11.296l12.28 5.184a126.368 126.368 0 0 1-6.184 12.632z m-223.996-5.584a125.456 125.456 0 0 1-5.548-12.928l12.524-4.56c1.428 3.916 3.1 7.804 4.96 11.552l-11.936 5.936z m234.92-20.292l-12.784-3.792c1.188-3.996 2.156-8.108 2.888-12.228l13.12 2.324a124.288 124.288 0 0 1-3.224 13.696z m-244.536-6.1a128.172 128.172 0 0 1-2.544-13.828l13.228-1.68c0.524 4.156 1.292 8.316 2.272 12.372l-12.956 3.136z m249.452-21.556l-13.304-0.852a115.752 115.752 0 0 0 0.12-12.592l13.312-0.6c0.088 1.924 0.136 3.856 0.14 5.796a133.772 133.772 0 0 1-0.268 8.248z m-252.976-6.3l-0.016-1.884c0-4.096 0.192-8.168 0.572-12.152l13.268 1.268a114.548 114.548 0 0 0-0.512 10.836l0.016 1.744-13.328 0.188z m238.524-19.656a113.816 113.816 0 0 0-2.652-12.292l12.852-3.532c1.24 4.512 2.24 9.14 2.964 13.748l-13.164 2.076z m-222.812-5.548l-13.044-2.74c0.96-4.576 2.192-9.148 3.652-13.588l12.66 4.18a114.78 114.78 0 0 0-3.268 12.148z m216.156-18.66a113.78 113.78 0 0 0-5.312-11.396l11.752-6.292c2.204 4.116 4.2 8.4 5.936 12.736l-12.376 4.952z m-208.28-5.196l-12.116-5.564a127.34 127.34 0 0 1 6.572-12.432l11.42 6.868a115.56 115.56 0 0 0-5.876 11.128z m196.42-16.94a115.096 115.096 0 0 0-7.696-9.956l10.084-8.72a128.148 128.148 0 0 1 8.592 11.12l-10.98 7.556z m-183.46-4.592l-10.596-8.088a128.056 128.056 0 0 1 9.14-10.684l9.632 9.212a113.712 113.712 0 0 0-8.176 9.56z m167.016-14.42a113.884 113.884 0 0 0-9.68-8.032l7.932-10.712a126.792 126.792 0 0 1 10.816 8.976l-9.068 9.768z m-149.656-3.748l-8.564-10.212c3.576-3 7.36-5.836 11.244-8.424l7.396 11.092a112.936 112.936 0 0 0-10.076 7.544z m129.452-11.2a112.112 112.112 0 0 0-11.204-5.708l5.372-12.196a126.024 126.024 0 0 1 12.54 6.384l-6.708 11.52z m-108.536-2.728l-6.12-11.84a126.7 126.7 0 0 1 12.84-5.748l4.756 12.452c-3.904 1.492-7.764 3.22-11.476 5.136z m85.56-7.404a112.468 112.468 0 0 0-12.2-3.076l2.536-13.088a126.08 126.08 0 0 1 13.644 3.44l-3.98 12.724z m-62.108-1.552l-3.332-12.904a126.532 126.532 0 0 1 13.784-2.752l1.884 13.196a113.856 113.856 0 0 0-12.336 2.46z m37.448-3.224a111.532 111.532 0 0 0-12.588-0.312l-0.4-13.324c1.288-0.04 2.524-0.04 3.888-0.056 3.368 0 6.792 0.136 10.16 0.404l-1.06 13.288z" p-id="6798"/><path fill="#71CDE1" d="M830.256 246.588c-53.896 0-97.744-43.848-97.744-97.744s43.848-97.744 97.744-97.744 97.748 43.848 97.748 97.744-43.852 97.744-97.748 97.744z" p-id="6799"/><path fill="#4A555F" d="M810.632 199.992l-34.868-40.728 10.128-8.668 25.888 30.244 72.196-66.304 9.016 9.82z" p-id="6800"/><path fill="#4A555F" d="M614.896 640.58c0.224 17.328-0.532 35.28-1.244 52.7-0.576 13.24-1.112 26.836-1.244 39.9-18.484 2.22-37.812-2.844-52.7-13.952-13.82-10.352-22.304-25.104-23.86-41.544v-1.956c0.176-11.64 0.312-23.372 0.312-35.148 0-2.8-0.044-5.688-0.044-8.488 0.044-1.556 0.044-2.488 0.044-2.488h-0.044c0-2-0.044-3.956-0.044-5.952-0.044-3.112-0.088-6.176-0.176-9.288-0.044-2.976-0.088-5.956-0.176-8.932v-0.668c-0.088-2.132-0.132-4.268-0.224-6.4-0.044-1.644-0.088-3.288-0.176-4.976-0.132-4-0.312-8-0.532-11.996a37.508 37.508 0 0 0-0.268-3.2c-0.076-0.888-0.252-1.704-0.36-2.572-0.128-1.068-0.256-2.14-0.456-3.248a70.096 70.096 0 0 0-1.052-4.976l-0.044-0.228c-0.028-0.128-0.076-0.252-0.104-0.38-0.252-0.992-0.452-2.036-0.74-2.996-0.088-0.312-0.224-0.62-0.268-0.932-4.964-15.448-14.876-26.616-26.784-33.864l-0.428-0.272a68.292 68.292 0 0 0-6.556-3.496c-1.156-0.532-2.312-1.068-3.512-1.512-1.2-0.488-2.4-0.932-3.644-1.332a39.168 39.168 0 0 0-3.288-1.02 2.46 2.46 0 0 0-0.756-0.22 41.44 41.44 0 0 0-3.42-0.844 48.452 48.452 0 0 0-3.464-0.668 25.96 25.96 0 0 0-1.956-0.312c-0.488-0.088-0.976-0.176-1.512-0.176a18.48 18.48 0 0 0-2.132-0.268c-0.132 0-0.268-0.044-0.444 0-0.844-0.132-1.732-0.176-2.576-0.224a65.26 65.26 0 0 0-2.888-0.088c-2.976 0-6 0.132-8.976 0.488-1.732 0.22-3.42 0.488-5.112 0.8-1.2 0.224-2.4 0.488-3.6 0.756-1.82 0.444-3.6 0.976-5.376 1.556-3.82 1.244-7.552 2.844-11.152 4.756-0.8 0.444-1.556 0.888-2.312 1.332-3.376 2-6.62 4.312-9.644 6.976a61.22 61.22 0 0 0-6.264 6.444c-1.376 1.6-2.62 3.288-3.776 5.068-0.624 0.888-1.156 1.776-1.732 2.708-1.2 1.956-2.268 4-3.2 6.132-0.756 1.6-1.42 3.244-1.956 4.976-2.044 5.644-3.376 11.864-3.912 18.752v0.044c-0.088 0.932-0.132 1.824-0.176 2.756a374.116 374.116 0 0 0-0.668 23.416c0 6.932 0.132 13.82 0.268 20.616 0 0.4 0 0.756 0.044 1.112 0 0.976 0.044 1.912 0.044 2.844 0.088 3.512 0.176 7.02 0.176 10.488 0.132 4.488 0.176 8.932 0.176 13.376v207.108h13.332V653.96c0-8-0.176-16.04-0.356-24.128-0.132-6-0.268-12.04-0.312-18.128-0.044-2-0.044-4-0.044-6 0-8.532 0.224-17.02 0.844-25.372 0.224-3.156 0.668-6.132 1.288-8.976 0.4-1.868 0.888-3.644 1.512-5.376 0.268-0.844 0.576-1.732 0.888-2.576 0.668-1.644 1.376-3.244 2.176-4.756 0 0-0.044-0.044 0-0.044a46.424 46.424 0 0 1 16.084-17.82 37.208 37.208 0 0 1 4.044-2.4c1.376-0.712 2.8-1.42 4.22-2 7.152-3.02 14.976-4.488 22.66-4.488H468c1.068 0 2.132 0.044 3.2 0.132 0.844 0.044 1.688 0.132 2.576 0.224 0.488 0.044 1.024 0.132 1.556 0.176 1.42 0.22 2.8 0.444 4.22 0.756 0.756 0.132 1.512 0.312 2.312 0.532 0.756 0.176 1.512 0.4 2.268 0.624a56.532 56.532 0 0 1 17.152 8.444c1.288 0.976 2.576 2 3.776 3.112 1.82 1.644 3.512 3.464 5.108 5.376 1.068 1.332 2.044 2.664 3.02 4.132 0.444 0.712 0.888 1.42 1.332 2.176 0.444 0.756 0.844 1.556 1.244 2.312 0.224 0.4 0.4 0.8 0.576 1.2 0.312 0.668 0.624 1.332 0.888 2 0.488 1.2 0.976 2.4 1.376 3.644 0.356 1.02 0.668 2.044 0.932 3.112a0.836 0.836 0 0 1 0.088 0.312c0.268 0.932 0.488 1.868 0.668 2.844 0.132 0.624 0.268 1.288 0.356 1.956 0.312 1.644 0.532 3.42 0.668 5.2l0.132 1.912v0.044c0.224 4.088 0.4 8.22 0.576 12.352 0 0.4 0 0.756 0.044 1.156 0.132 3.776 0.268 7.552 0.356 11.376 0.088 4.132 0.176 8.308 0.224 12.484l0.132 11.108v3.332l-0.088 11.108c-0.088 9.732-0.176 22.04-0.176 30.792-0.088 7.6-0.224 15.152-0.356 22.66-0.356 19.064-0.712 38.792-0.712 58.12 0 38.524-0.712 171.424-10.088 264.78l13.24 1.332c9.464-93.976 10.176-227.456 10.176-266.116 0-14.44 0.224-29.06 0.444-43.588a77.04 77.04 0 0 0 16.484 16.884c14.884 11.108 33.548 17.108 52.164 17.108 5.508 0 11.064-0.532 16.44-1.6l5.376-1.068v-5.464c0-14.484 0.624-29.328 1.288-45.056 0.712-17.552 1.468-35.636 1.244-53.232h-13.32z" p-id="6801"/><path fill="#4A555F" d="M529.54 557.932c-1.288-3.112-2.756-6-4.22-8.308h0.132a60.336 60.336 0 0 1 6 13.152h-0.132c-0.176-0.576-0.4-1.2-0.624-1.776a49.628 49.628 0 0 0-1.156-3.068zM305.236 1020.088l-12.752 3.912c-6.532-21.108-15.108-45.1-24.216-70.472-17.508-48.788-35.592-99.22-43.5-141.476l-0.088-0.58c-4.488-44.7 5.732-83.092 16.308-114.728 7.152-17.42 14.796-34.968 24.528-56.164h14.708c-10.888 23.552-19.196 42.436-26.748 60.784-9.952 29.86-19.728 66.428-15.552 108.508 7.732 41.144 25.64 90.956 42.88 139.124 9.148 25.548 17.812 49.676 24.432 71.092z" p-id="6802"/></svg>