<svg version="1.0" xmlns="http://www.w3.org/2000/svg" width="75.000000pt" height="60.000000pt"
    viewBox="0 0 75.000000 60.000000" preserveAspectRatio="xMidYMid meet">

    <g transform="translate(0.000000,60.000000) scale(0.100000,-0.100000)" fill="#000000" stroke="none">
        <path d="M500 510 c0 -27 -2 -29 -28 -24 -63 13 -106 -67 -66 -124 14 -20 23
            -22 70 -20 l54 3 0 98 c0 80 -3 97 -15 97 -10 0 -15 -10 -15 -30z m-10 -79
            c12 -23 5 -47 -16 -55 -34 -13 -62 21 -44 55 14 25 46 25 60 0z" />
        <path d="M99 501 c-73 -73 5 -193 103 -159 30 11 32 15 19 36 -6 10 -13 11
            -34 1 -57 -26 -105 52 -60 96 12 12 27 16 54 12 25 -3 39 -1 43 8 8 21 -15 35
            -57 35 -29 0 -46 -7 -68 -29z" />
        <path d="M274 479 c-22 -11 -44 -48 -44 -73 0 -7 9 -25 21 -40 41 -52 129 -19
            129 49 0 49 -61 86 -106 64z m54 -41 c17 -17 15 -43 -4 -59 -31 -26 -70 25
            -44 56 15 18 32 19 48 3z" />
        <path d="M575 465 c-50 -49 -20 -125 49 -125 39 0 62 20 44 38 -7 7 -17 8 -30
            1 -26 -14 -22 1 13 41 l30 35 -22 18 c-29 24 -55 21 -84 -8z m38 -41 c-9 -15
            -19 -21 -21 -15 -6 19 6 41 23 41 14 0 13 -3 -2 -26z" />
        <path d="M180 205 c0 -88 1 -95 20 -95 16 0 20 7 20 34 0 30 3 35 27 38 17 2
            29 10 31 21 3 13 -3 17 -27 17 -24 0 -31 4 -31 20 0 17 7 20 45 20 38 0 45 3
            45 20 0 18 -7 20 -65 20 l-65 0 0 -95z" />
        <path d="M343 250 c-45 -18 -57 -81 -23 -118 24 -25 81 -30 99 -9 15 19 -7 41
            -26 25 -28 -23 -24 3 6 37 38 43 38 49 6 63 -30 14 -32 14 -62 2z m27 -49
            c-15 -29 -30 -35 -30 -12 0 17 11 28 33 30 4 1 3 -8 -3 -18z" />
        <path d="M465 235 c-50 -49 -20 -125 49 -125 39 0 62 20 44 38 -7 7 -17 8 -29
            2 -36 -20 -63 8 -48 48 9 23 38 29 55 12 8 -8 15 -6 23 4 10 11 8 17 -11 30
            -32 22 -55 20 -83 -9z" />
    </g>
</svg>
